<svg width="65" height="66" viewBox="0 0 65 66" fill="none" xmlns="http://www.w3.org/2000/svg">
<path d="M63.8806 34.085C63.8806 51.4389 49.8125 65.507 32.4586 65.507C15.1047 65.507 1.03658 51.4389 1.03658 34.085C1.03658 16.7311 15.1047 2.66301 32.4586 2.66301C49.8125 2.66301 63.8806 16.7311 63.8806 34.085Z" stroke="black" stroke-opacity="0.92" stroke-width="0.0731595"/>
<ellipse cx="32.4586" cy="34.085" rx="31.4586" ry="31.4586" fill="#FFF799"/>
<circle cx="32.2757" cy="34.2679" r="21.765" fill="#ECD452"/>
<path d="M38.4114 48.9833C38.1612 49.7818 36.636 50.9617 35.9924 51.5219C35.3488 52.0821 34.592 52.5052 33.7219 52.7912C32.8519 53.0653 31.9461 53.2024 31.0045 53.2024C29.3598 53.2024 27.9355 52.821 26.7318 52.0582C25.5399 51.2835 24.6341 50.2586 24.0144 48.9833C23.3946 47.708 23.0847 46.3255 23.0847 44.8357C23.0847 43.2624 23.4601 41.8263 24.211 40.5272C24.9619 39.2161 26.0167 38.1852 27.3754 37.4343C28.7341 36.6716 30.2775 36.2902 32.0057 36.2902C33.0068 36.2902 33.9245 36.4391 34.7588 36.7371C35.5931 37.0231 36.2486 37.4343 36.7254 37.9707C37.214 38.507 37.4583 39.1267 37.4583 39.8299C37.4583 40.3663 37.2855 40.7596 36.9399 41.0099C36.5943 41.2482 36.2248 41.3674 35.8315 41.3674C35.462 41.3674 35.176 41.3019 34.9733 41.1708C34.7707 41.0277 34.6218 40.8609 34.5264 40.6702C34.443 40.4676 34.3596 40.1875 34.2761 39.8299C34.1808 39.377 34.0616 39.0076 33.9186 38.7215C33.7875 38.4355 33.5372 38.1852 33.1677 37.9707C32.7982 37.7561 32.2679 37.6369 31.5766 37.6131C30.6589 37.5774 29.8008 37.8038 29.0022 38.2925C28.2037 38.7692 27.5601 39.4843 27.0714 40.4378C26.5947 41.3912 26.3563 42.5354 26.3563 43.8703C26.3563 45.1098 26.5768 46.248 27.0178 47.2849C27.4588 48.3218 28.1024 49.1501 28.9486 49.7699C29.8067 50.3897 30.8317 50.6995 32.0235 50.6995C33.0604 50.6995 33.9245 50.5744 34.6158 50.3241C35.3071 50.0738 37.1783 49.0624 38.0591 47.8292L38.4114 48.9833Z" fill="#080808"/>
<path d="M37.9408 20.891C37.6895 20.5045 37.1967 20.1179 36.4622 19.7313C35.747 19.3448 35.0416 19.0162 34.3457 18.7456C33.6693 18.475 33.2247 18.3107 33.0121 18.2527L33.0701 17.238L41.246 15.2665L43.3334 15.0635V49.1877C43.3334 50.3474 43.8263 51.1785 44.812 51.681C45.8171 52.1836 46.8898 52.4348 48.0302 52.4348V54.0294L40.2892 55.3051H38.3467L38.0858 50.8113C36.7135 52.3962 35.2735 53.5849 33.7659 54.3773C32.2583 55.1505 30.6444 55.537 28.9241 55.537C26.74 55.537 24.7396 55.0152 22.9227 53.9714C21.1252 52.9084 19.7045 51.4298 18.6608 49.5356C17.6171 47.6221 17.0952 45.4283 17.0952 42.9543C17.0952 40.113 17.6751 37.5714 18.8348 35.3293C20.0138 33.0872 21.6277 31.338 23.6765 30.0816C25.7253 28.8253 28.0157 28.1971 30.5477 28.1971C31.7268 28.1971 32.8768 28.3807 33.9978 28.748C35.1189 29.0959 36.4332 29.6274 37.9408 30.3426V20.891ZM37.9408 40.171C37.9408 38.2962 37.7765 36.7886 37.4479 35.6482C37.1194 34.4885 36.4525 33.4641 35.4475 32.575C34.6743 31.8985 33.8432 31.3766 32.9541 31.0094C32.065 30.6228 31.1662 30.4295 30.2578 30.4295C28.7309 30.4295 27.3779 30.9224 26.1989 31.9082C25.0198 32.8939 24.1017 34.2082 23.4446 35.8511C22.8067 37.4747 22.4878 39.2336 22.4878 41.1278C22.4878 42.964 22.8067 44.7228 23.4446 46.4044C24.1017 48.0666 25.0778 49.4293 26.3728 50.4923C27.6678 51.5554 29.2334 52.0869 31.0696 52.0869C32.5385 52.0869 33.8432 51.768 34.9836 51.1302C36.1433 50.473 37.129 49.6032 37.9408 48.5208V40.171Z" fill="#080808"/>
<path d="M37.3496 2.91299C37.4009 3.03082 37.3771 3.10907 37.278 3.14774" stroke="#756C7A" stroke-width="0.163373"/>
<path d="M37.278 3.14752C37.2206 3.02 37.1381 2.91219 37.0305 2.8241" stroke="#9E9C9C" stroke-width="0.163373"/>
<path d="M37.0303 2.82441C36.9642 2.70616 36.8722 2.61539 36.7544 2.55209" stroke="#756C7A" stroke-width="0.163373"/>
<path d="M36.7548 2.55221L36.6523 2.44061" stroke="#9E9C9C" stroke-width="0.163373"/>
<path d="M36.6524 2.44087C36.5455 2.32198 36.4141 2.23152 36.2581 2.16949" stroke="#756C7A" stroke-width="0.163373"/>
<path d="M36.258 2.16936C36.0491 2.19315 35.9259 2.32108 35.8883 2.55316C35.8318 2.90267 35.8083 3.21862 35.8178 3.50103" stroke="#9E9C9C" stroke-width="0.163373"/>
<path d="M35.8178 3.50129C35.7477 3.83377 35.7327 4.18354 35.7726 4.55062" stroke="#756C7A" stroke-width="0.163373"/>
<path d="M35.7725 4.55017L35.6437 5.61604" stroke="#9E9C9C" stroke-width="0.163373"/>
<path d="M35.6434 5.61585C35.5969 5.72778 35.5756 5.84988 35.5793 5.98216" stroke="#756C7A" stroke-width="0.163373"/>
<path d="M35.58 5.98229L35.4709 6.44774" stroke="#9E9C9C" stroke-width="0.163373"/>
<path d="M35.4708 6.44826L35.4103 6.65785" stroke="#756C7A" stroke-width="0.163373"/>
<path d="M35.41 6.65714L35.1258 7.28167" stroke="#9E9C9C" stroke-width="0.163373"/>
<path d="M35.1259 7.2823C35.0212 7.39295 34.952 7.52376 34.9185 7.67474" stroke="#756C7A" stroke-width="0.163373"/>
<path d="M34.9186 7.67489C34.5475 8.24232 34.2636 8.78921 34.0669 9.31556C33.5608 10.6666 34.0073 12.2669 35.2798 13.0391C35.6304 13.2518 35.9961 13.4331 36.377 13.5829C36.419 13.5993 36.4569 13.6017 36.4906 13.59C36.5621 13.5644 36.5623 13.5381 36.491 13.5109C36.1364 13.3788 35.8876 13.132 35.7447 12.7706" stroke="#9E9C9C" stroke-width="0.163373"/>
<path d="M35.7444 12.7707C35.6726 12.3268 35.5551 11.8521 35.5992 11.4207C35.7424 10.0068 36.592 8.6173 37.3748 7.52368C38.0117 6.63419 38.4997 5.97303 38.5671 4.91613" stroke="#756C7A" stroke-width="0.163373"/>
<path d="M38.567 4.91599C38.6376 4.70686 38.6711 4.48458 38.6677 4.24916C38.6665 4.2016 38.6843 4.19262 38.7213 4.22221L38.7449 4.24079C38.7545 4.24853 38.7666 4.25256 38.7789 4.25215C38.7912 4.25174 38.803 4.24691 38.8121 4.23854C39.0255 4.04776 39.1702 4.0338 39.125 3.68875" stroke="#9E9C9C" stroke-width="0.163373"/>
<path d="M39.125 3.68908L39.1152 3.60751" stroke="#756C7A" stroke-width="0.163373"/>
<path d="M39.1152 3.60713L39.187 3.18808C39.2064 3.07498 39.1713 3.05421 39.0816 3.12577L38.8653 3.29879" stroke="#9E9C9C" stroke-width="0.163373"/>
<path d="M38.8657 3.29921C38.7571 3.32202 38.6588 3.32112 38.5708 3.2965C38.5511 3.2909 38.5343 3.27789 38.5237 3.26016L38.3269 2.93399C38.321 2.92439 38.3131 2.91612 38.3039 2.90968C38.2946 2.90324 38.2841 2.89876 38.2731 2.89654C38.262 2.89431 38.2506 2.89437 38.2396 2.89672C38.2285 2.89907 38.2181 2.90366 38.2089 2.91021C38.1049 2.98513 38.0357 3.08139 38.0015 3.199" stroke="#756C7A" stroke-width="0.163373"/>
<path d="M38.0013 3.19929C37.8278 3.26166 37.7403 3.21806 37.7389 3.0685C37.7373 2.88881 37.7366 2.70133 37.7369 2.50605C37.7372 2.39359 37.6993 2.37891 37.6231 2.46203C37.5984 2.48965 37.5819 2.52836 37.5736 2.57816" stroke="#9E9C9C" stroke-width="0.163373"/>
<path d="M37.5736 2.57804C37.3477 2.64939 37.5179 2.86274 37.3495 2.91324" stroke="#756C7A" stroke-width="0.163373"/>
<path d="M39.1251 3.68871C39.0284 3.81595 38.9202 3.93222 38.8006 4.03752C38.7202 4.10852 38.6519 4.19344 38.5957 4.29228C38.4488 4.55081 38.0389 4.85303 37.7842 5.0076C36.9588 5.50852 36.1674 6.05857 35.4101 6.65775" stroke="#D6CFDD" stroke-width="0.163373"/>
<path d="M38.0011 3.19887C37.7867 3.70593 37.5406 4.19677 37.2626 4.67138C37.165 4.83712 37.1958 4.86607 37.3552 4.75824C37.9409 4.36213 38.4442 3.87574 38.8653 3.29908" stroke="#D6CFDD" stroke-width="0.163373"/>
<path d="M39.1158 3.6078C39.0728 3.6058 39.0412 3.61669 39.021 3.64049C38.2797 4.49634 37.6746 4.89258 36.6357 5.49433C36.3505 5.6594 35.9622 5.97741 35.471 6.44837" stroke="#D6CFDD" stroke-width="0.163373"/>
<path d="M35.5797 5.98277C36.432 5.37609 37.0569 4.58867 37.4543 3.62049C37.5427 3.40539 37.5825 3.05788 37.5736 2.57797" stroke="#D6CFDD" stroke-width="0.163373"/>
<path d="M36.7544 2.55231C36.473 3.22367 36.2364 3.83841 36.0446 4.39654C35.9054 4.80197 35.9448 4.82003 36.163 4.45072C36.476 3.92092 36.7652 3.37889 37.0304 2.82463" stroke="#D6CFDD" stroke-width="0.163373"/>
<path d="M37.2777 3.14804C36.8686 3.98817 36.3224 5.03716 35.6436 5.61656" stroke="#D6CFDD" stroke-width="0.163373"/>
<path d="M35.7439 12.7707C34.4152 12.0036 34.2697 9.8779 34.6524 8.55391C34.7375 8.25969 34.8259 7.9667 34.9179 7.67495" stroke="#D6CFDD" stroke-width="0.163373"/>
<path d="M38.5672 4.91598C37.2675 5.64836 36.0626 6.28634 35.1258 7.28232" stroke="#D6CFDD" stroke-width="0.163373"/>
<path d="M36.6527 2.44076L35.7729 4.55039" stroke="#D6CFDD" stroke-width="0.163373"/>
<path d="M36.258 2.16935C35.965 2.89583 35.9809 2.9529 36.3055 2.34055C36.3126 2.32654 36.3213 2.31619 36.3314 2.30949C36.3451 2.30018 36.3579 2.29455 36.3697 2.29259C36.3744 2.2918 36.3792 2.29225 36.3836 2.2939C36.3881 2.29554 36.392 2.29832 36.395 2.30197C36.398 2.30561 36.4 2.30998 36.4008 2.31464C36.4016 2.3193 36.4012 2.32409 36.3995 2.32853C36.2434 2.73981 36.0495 3.13064 35.8178 3.50102" stroke="#D6CFDD" stroke-width="0.163373"/>
<path d="M40.8411 7.189C40.6965 7.34198 40.6485 7.26379 40.499 7.2454C40.1818 7.20696 39.8671 7.22116 39.5548 7.288C39.412 7.31872 39.4046 7.36924 39.5325 7.43955L39.7332 7.54972C39.7462 7.55687 39.7609 7.56026 39.7758 7.55951C39.7907 7.55875 39.8051 7.55388 39.8174 7.54544C39.9769 7.43869 40.1109 7.46577 40.2195 7.62668C40.2275 7.63835 40.232 7.65124 40.2332 7.66537C40.2411 7.75984 40.2635 7.8208 40.3002 7.84823C40.7048 8.1554 40.9781 8.54074 41.1199 9.00426C41.1325 9.04554 41.1514 9.06112 41.1765 9.05099C41.1818 9.04889 41.1863 9.04528 41.1894 9.04064C41.1925 9.03601 41.1941 9.03056 41.194 9.02505L41.1651 8.17541" stroke="#756C7A" stroke-width="0.163373"/>
<path d="M41.1652 8.17552C41.3336 7.7869 41.5368 7.36617 41.5333 6.93634C41.532 6.76868 41.5413 6.60578 41.5614 6.44763C41.5817 6.28671 41.5428 6.27078 41.4447 6.39984L40.8411 7.18911" stroke="#9E9C9C" stroke-width="0.163373"/>
<path d="M41.1653 8.17583L41.0974 7.63357C41.0946 7.6147 41.0856 7.59725 41.0718 7.58398C40.9547 7.47617 40.8779 7.34465 40.8413 7.18942" stroke="#D6CFDD" stroke-width="0.163373"/>
<path d="M39.698 6.57742C39.6802 6.71775 39.6506 6.85784 39.6091 6.9977C39.6051 7.01098 39.6045 7.02506 39.6074 7.03862C39.6104 7.05219 39.6167 7.06478 39.6258 7.07521C39.635 7.08565 39.6466 7.09358 39.6597 7.09826C39.6728 7.10294 39.6868 7.10422 39.7005 7.10198L39.8498 7.07761C39.8627 7.07548 39.8749 7.07026 39.8854 7.06241C39.8959 7.05455 39.9044 7.04428 39.9101 7.03247C39.9158 7.02066 39.9185 7.00765 39.9181 6.99454C39.9178 6.98143 39.9142 6.96861 39.9078 6.95717C39.8395 6.83532 39.7837 6.712 39.7403 6.58719C39.7188 6.52614 39.7047 6.52288 39.698 6.57742Z" stroke="#9E9C9C" stroke-width="0.163373"/>
<path d="M39.9555 8.80041L39.9286 8.78141C39.917 8.77328 39.9036 8.76829 39.8895 8.76693C39.8754 8.76557 39.8612 8.76789 39.8483 8.77365C39.8354 8.77942 39.8242 8.78844 39.8158 8.79983C39.8075 8.81122 39.8022 8.82459 39.8005 8.83863C39.7806 9.00772 39.7899 9.14044 39.8282 9.23678C39.9158 9.45668 40.0836 9.64975 40.3316 9.81599C40.3421 9.82293 40.3542 9.82732 40.3668 9.82882C40.3794 9.83031 40.3922 9.82887 40.4042 9.82461C40.7095 9.71748 40.9337 9.52103 41.0768 9.23524C41.0816 9.22558 41.0845 9.21503 41.0852 9.20421C41.0859 9.19339 41.0844 9.18252 41.0808 9.17224C40.7918 8.3207 40.2866 7.94736 39.5123 7.56579C39.3217 7.47168 39.2608 7.54229 39.3294 7.77762C39.4277 8.1147 39.6083 8.39728 39.8713 8.62535C39.9227 8.66968 39.9655 8.71147 39.9998 8.75071C40.1255 8.89423 40.1107 8.9108 39.9555 8.80041Z" stroke="#9E9C9C" stroke-width="0.163373"/>
<path d="M39.8789 10.0356C39.7918 9.88855 39.6897 9.87851 39.5726 10.0054C39.5625 10.0158 39.5499 10.0235 39.5358 10.0279C39.2547 10.113 38.97 10.154 38.6818 10.1511C37.6299 10.1399 36.9914 10.5392 36.3233 11.3115C35.9338 11.7616 35.7786 12.2767 35.8576 12.8568" stroke="#756C7A" stroke-width="0.163373"/>
<path d="M35.8571 12.8572C36.0464 13.1796 36.3168 13.3917 36.6684 13.4935C36.6851 13.4982 36.7028 13.4976 36.7191 13.4916C36.7354 13.4857 36.7494 13.4748 36.7591 13.4605C36.9931 13.114 37.1866 12.7377 37.3395 12.3318" stroke="#9E9C9C" stroke-width="0.163373"/>
<path d="M37.3399 12.332C37.4885 12.3877 37.5577 12.5237 37.5472 12.74C37.5234 13.2622 37.5064 13.7847 37.4963 14.3074C37.4949 14.3923 37.5975 15.1641 37.6665 15.1558C37.6726 15.1554 37.6783 15.1527 37.6826 15.1483C37.6869 15.1438 37.6895 15.1379 37.6899 15.1317L37.7752 13.7625" stroke="#756C7A" stroke-width="0.163373"/>
<path d="M37.7751 13.7619C37.9361 13.2977 38.2088 12.997 38.4106 12.4605C38.4169 12.4437 38.4286 12.4295 38.4438 12.4201C38.4591 12.4107 38.4771 12.4066 38.4949 12.4085C38.8044 12.4382 39.1907 12.5452 39.4749 12.4867C39.6002 12.4613 39.721 12.4187 39.8373 12.3587C39.848 12.3534 39.8573 12.3458 39.8647 12.3363C39.872 12.3269 39.8772 12.3159 39.8798 12.3042C39.8824 12.2925 39.8824 12.2803 39.8798 12.2686C39.8772 12.2568 39.872 12.2458 39.8646 12.2362C39.7798 12.1273 39.7348 12.0098 39.7297 11.8837C39.7144 11.4978 39.7 11.239 39.6865 11.1074C39.6859 11.1023 39.6872 11.0971 39.6902 11.0929C39.6932 11.0888 39.6977 11.0859 39.7027 11.0849C39.7491 11.0736 39.8354 11.4936 39.8554 11.5998" stroke="#9E9C9C" stroke-width="0.163373"/>
<path d="M39.8554 11.6002C39.7053 12.0598 40.135 12.3171 40.4125 12.5884C40.459 12.6339 40.5023 12.7529 40.5422 12.9456C40.5449 12.959 40.551 12.9716 40.5599 12.982C40.5688 12.9924 40.5803 13.0004 40.5932 13.0052C40.6061 13.01 40.62 13.0114 40.6337 13.0094C40.6474 13.0074 40.6603 13.0019 40.6713 12.9936L40.771 12.9183C40.7856 12.9072 40.7961 12.8915 40.8007 12.8738C40.8053 12.8561 40.8038 12.8374 40.7964 12.8207C40.6733 12.5409 40.2032 11.5299 40.4021 11.2726" stroke="#756C7A" stroke-width="0.163373"/>
<path d="M40.402 11.2722C40.5955 11.1559 40.7979 11.1376 41.0092 11.2171" stroke="#9E9C9C" stroke-width="0.163373"/>
<path d="M41.0093 11.2171C41.6121 11.5953 41.1872 13.4146 41.5365 13.9916C41.5461 14.0074 41.5559 14.023 41.5659 14.0383C41.6715 14.2017 41.7215 14.1859 41.7158 13.9908L41.698 13.3792" stroke="#756C7A" stroke-width="0.163373"/>
<path d="M41.6983 13.3795C41.676 12.3785 41.5543 11.3913 41.333 10.4179C41.3034 10.2892 41.2715 10.1137 41.2373 9.89126C41.2164 9.75665 41.1899 9.62188 41.1579 9.48693C41.1307 9.37391 41.0824 9.36404 41.0129 9.45732C40.8913 9.61989 40.7361 9.7445 40.5474 9.83116C40.5309 9.83874 40.5175 9.85163 40.5091 9.86782C40.5008 9.884 40.498 9.90256 40.5013 9.92056C40.5207 10.0236 40.5717 10.1017 40.6542 10.1549C40.6708 10.1651 40.683 10.1812 40.6884 10.2002C40.788 10.5322 40.5405 10.2359 40.4523 10.3377" stroke="#9E9C9C" stroke-width="0.163373"/>
<path d="M40.4526 10.338C40.3391 10.4485 40.3635 10.48 40.5259 10.4326" stroke="#756C7A" stroke-width="0.163373"/>
<path d="M40.5248 10.4319C40.4802 10.5771 40.4131 10.5829 40.3237 10.4493C40.3153 10.4365 40.3034 10.4264 40.2893 10.4202C40.2753 10.414 40.2598 10.412 40.2447 10.4143C40.1822 10.4234 40.1381 10.4012 40.1125 10.3478C40.106 10.3338 40.1034 10.3183 40.1052 10.3029C40.107 10.2876 40.1131 10.2731 40.1228 10.261C40.2017 10.1638 40.2514 10.0537 40.2718 9.93064C40.2743 9.91636 40.273 9.90167 40.2679 9.88809C40.2628 9.87451 40.2542 9.86255 40.2429 9.85347C40.0766 9.71971 39.9384 9.56069 39.8282 9.37639C39.826 9.37294 39.8229 9.37013 39.8192 9.36826C39.8155 9.36639 39.8113 9.36551 39.8071 9.36573L39.7843 9.36763C39.7809 9.36787 39.7776 9.36894 39.7747 9.37074C39.7717 9.37255 39.7693 9.37504 39.7675 9.378C39.7658 9.38096 39.7648 9.3843 39.7646 9.38774C39.7644 9.39117 39.7651 9.3946 39.7665 9.39772C39.8575 9.60406 39.8949 9.81678 39.8788 10.0359" stroke="#9E9C9C" stroke-width="0.163373"/>
<path d="M40.5251 10.4324L40.4519 10.338" stroke="#D6CFDD" stroke-width="0.163373"/>
<path d="M41.6981 13.3795C41.5664 12.9646 41.4941 12.6502 41.4812 12.4362C41.4493 11.9113 41.4013 11.3774 41.3372 10.8344C41.3176 10.67 41.267 10.6596 41.1854 10.8032C41.1159 10.9244 41.0572 11.0625 41.0093 11.2174" stroke="#D6CFDD" stroke-width="0.163373"/>
<path d="M40.4023 11.2727C40.3092 11.1911 40.2049 11.1413 40.0892 11.1233C40.0769 11.1214 40.0643 11.1223 40.0524 11.126C40.0405 11.1296 40.0296 11.136 40.0205 11.1445C40.0115 11.1531 40.0045 11.1636 40.0001 11.1752C39.9957 11.1869 39.9941 11.1994 39.9953 11.2118C40.0105 11.363 39.964 11.4925 39.8556 11.6003" stroke="#D6CFDD" stroke-width="0.163373"/>
<path d="M37.7751 13.7622C37.6902 13.4641 37.6969 13.1801 37.7953 12.91C37.929 12.5412 38.3326 12.345 38.6849 12.229C39.3355 12.0141 39.2497 11.2601 39.5372 10.8079C39.6884 10.5711 39.8022 10.3137 39.8788 10.0359" stroke="#D6CFDD" stroke-width="0.163373"/>
<path d="M37.3395 12.3318C37.0235 12.603 36.7016 12.8172 36.3737 12.9742C36.3561 12.9826 36.3363 12.9847 36.3177 12.98L35.8571 12.8572" stroke="#D6CFDD" stroke-width="0.163373"/>
<path d="M40.5079 10.1077L40.4742 10.0393C40.4276 9.94233 40.3789 9.94155 40.3283 10.037L40.1896 10.3019C40.1864 10.308 40.1847 10.3149 40.1848 10.3218C40.1849 10.3287 40.1866 10.3354 40.19 10.3415C40.1933 10.3475 40.1981 10.3527 40.2039 10.3564C40.2097 10.3601 40.2163 10.3624 40.2232 10.3629C40.2503 10.3652 40.2747 10.351 40.2963 10.3205C40.3027 10.3114 40.311 10.3037 40.3207 10.2979C40.3303 10.2921 40.3411 10.2883 40.3523 10.2867L40.5817 10.2577C40.6298 10.252 40.636 10.2328 40.6003 10.2003L40.5265 10.1326C40.5185 10.1259 40.5123 10.1176 40.5079 10.1077Z" stroke="#756C7A" stroke-width="0.163373"/>
<path d="M37.249 12.7967L37.1826 12.9045" stroke="#756C7A" stroke-width="0.163373"/>
<path d="M37.1824 12.9042C36.9299 13.3119 36.7392 13.7065 36.4513 14.1274C36.2655 14.398 36.0402 14.7301 35.9915 15.06C35.9803 15.1321 35.9721 15.2038 35.9669 15.2751C35.9538 15.45 35.994 15.463 36.0876 15.3142L36.2591 15.0413" stroke="#9E9C9C" stroke-width="0.163373"/>
<path d="M36.2594 15.0417C36.4666 14.9764 36.5891 14.9094 36.627 14.8407C36.8191 14.4877 37.0689 14.1741 37.3762 13.9" stroke="#756C7A" stroke-width="0.163373"/>
<path d="M37.3761 13.8997C37.4344 13.4501 37.5097 12.9295 37.4384 12.4822C37.4376 12.4779 37.4352 12.474 37.4317 12.4713C37.4282 12.4687 37.4238 12.4675 37.4194 12.468L37.3951 12.4709C37.3889 12.4717 37.3832 12.4746 37.3789 12.479C37.3746 12.4834 37.372 12.4891 37.3716 12.4951C37.3614 12.6077 37.3205 12.7082 37.2488 12.7969" stroke="#9E9C9C" stroke-width="0.163373"/>
<path d="M37.3761 13.8996C37.123 13.502 37.4239 13.2103 37.2488 12.7968" stroke="#D6CFDD" stroke-width="0.163373"/>
<path d="M36.2592 15.0411C36.3217 14.7008 36.446 14.3887 36.6321 14.1049C36.7052 13.9934 37.2631 12.9447 37.1825 12.9041" stroke="#D6CFDD" stroke-width="0.163373"/>
<path d="M37.3492 2.91275C37.4005 3.03058 37.3767 3.10883 37.2776 3.14751C37.2202 3.01999 37.1377 2.91218 37.0301 2.82409C36.9639 2.70583 36.872 2.61506 36.7542 2.55177L36.6521 2.44054C36.5452 2.32165 36.4138 2.23119 36.2578 2.16916C36.0489 2.19295 35.9257 2.32089 35.8881 2.55297C35.8316 2.90247 35.8081 3.21843 35.8176 3.50083C35.7475 3.8333 35.7324 4.18308 35.7723 4.55016L35.6435 5.61603C35.5971 5.72796 35.5757 5.85007 35.5794 5.98235L35.4703 6.4478L35.4097 6.65739L35.1255 7.28192C35.0208 7.39257 34.9516 7.52338 34.9181 7.67436C34.5469 8.24179 34.263 8.78868 34.0663 9.31503C33.5602 10.6661 34.0067 12.2664 35.2792 13.0386C35.6298 13.2513 35.9955 13.4325 36.3765 13.5824C36.4184 13.5988 36.4563 13.6011 36.49 13.5894C36.5615 13.5639 36.5617 13.5376 36.4905 13.5104C36.1358 13.3783 35.887 13.1315 35.7441 12.7701C35.6723 12.3262 35.5549 11.8516 35.5989 11.4202C35.7422 10.0063 36.5917 8.61675 37.3746 7.52313C38.0114 6.63364 38.4994 5.97249 38.5668 4.91558C38.6373 4.70646 38.6709 4.48418 38.6675 4.24876C38.6662 4.2012 38.6841 4.19221 38.7211 4.22181L38.7447 4.24039C38.7543 4.24813 38.7663 4.25216 38.7787 4.25175C38.791 4.25134 38.8028 4.24651 38.8118 4.23814C39.0252 4.04736 39.17 4.0334 39.1248 3.68834L39.1151 3.60723L39.1869 3.18817C39.2063 3.07507 39.1712 3.0543 39.0816 3.12586L38.8653 3.29889C38.7567 3.32171 38.6584 3.3208 38.5704 3.29618C38.5507 3.29058 38.5339 3.27758 38.5233 3.25984L38.3265 2.93367C38.3206 2.92408 38.3127 2.91581 38.3035 2.90936C38.2942 2.90292 38.2837 2.89845 38.2727 2.89622C38.2616 2.89399 38.2502 2.89405 38.2392 2.89641C38.2281 2.89876 38.2177 2.90335 38.2085 2.90989C38.1045 2.98481 38.0353 3.08107 38.0011 3.19868C37.8275 3.26104 37.7401 3.21744 37.7387 3.06789C37.737 2.8882 37.7363 2.70072 37.7367 2.50544C37.737 2.39297 37.699 2.3783 37.6228 2.46142C37.5981 2.48904 37.5816 2.52775 37.5733 2.57755C37.3474 2.6489 37.5176 2.86225 37.3492 2.91275C37.3838 2.63222 37.4759 2.4293 37.6255 2.30398C37.9388 2.04123 37.8441 2.90314 37.8345 2.99478C37.8339 2.99932 37.8344 3.00392 37.8358 3.0083C37.8371 3.01267 37.8394 3.01673 37.8424 3.02022C37.8455 3.02372 37.8492 3.02657 37.8534 3.0286C37.8576 3.03063 37.8622 3.03181 37.8669 3.03205L37.8875 3.03287C37.8974 3.03296 37.9071 3.03031 37.9155 3.02524C37.9239 3.02017 37.9307 3.01287 37.9351 3.00417C38.0925 2.69584 38.3657 2.6962 38.5242 3.03927C38.5856 3.17289 38.6687 3.20522 38.7735 3.13625L39.1424 2.89074C39.3051 2.78306 39.3705 2.83477 39.3386 3.04588C39.2823 3.42277 39.3477 4.21295 38.9082 4.32208C38.8937 4.32555 38.8804 4.33296 38.8698 4.34351C38.8592 4.35405 38.8516 4.36734 38.8479 4.38192C38.7169 4.92567 38.6548 5.54347 38.4727 6.01023C38.3185 6.40537 38.1236 6.75793 37.8879 7.0679C36.7992 8.50071 35.573 10.2576 35.6714 12.1388C35.6727 12.1638 35.6835 12.176 35.7037 12.1752C35.7109 12.1748 35.7177 12.1723 35.7233 12.1679C35.7288 12.1635 35.7327 12.1576 35.7345 12.151C36.0277 11.1387 37.0701 10.2075 38.0833 10.0399C38.5271 9.96725 39.1316 10.0351 39.6747 9.87739C39.6853 9.87414 39.6952 9.86882 39.7037 9.86172C39.7122 9.85462 39.7192 9.84591 39.7242 9.83609C39.7293 9.82627 39.7323 9.81555 39.7331 9.80458C39.7339 9.79361 39.7324 9.7826 39.7288 9.77222C39.6045 9.40533 39.5888 9.03427 39.6817 8.65904C39.6848 8.64649 39.6848 8.63334 39.6817 8.62069C39.6786 8.60803 39.6726 8.59624 39.664 8.58629C39.3674 8.24404 39.2784 7.85648 39.1022 7.45464C39.0526 7.34263 39.0868 7.27987 39.2048 7.26637C39.6082 7.22076 39.594 6.59066 39.6553 6.26993C39.6577 6.25818 39.6631 6.2473 39.671 6.23839C39.6789 6.22949 39.689 6.22291 39.7003 6.21932C39.7474 6.20493 39.7798 6.23261 39.7974 6.30235C39.8702 6.58161 39.9895 6.84023 40.1556 7.07821C40.1677 7.09574 40.1862 7.10797 40.2073 7.11235L40.6299 7.19279C40.6436 7.19544 40.6577 7.19456 40.671 7.19025C40.6843 7.18593 40.6963 7.17831 40.7059 7.1681C41.0192 6.82419 41.3069 6.46085 41.569 6.07808C41.6699 5.9306 41.7095 5.94562 41.6879 6.12314C41.6441 6.4788 41.6469 6.83577 41.6962 7.19406C41.698 7.20895 41.6958 7.22397 41.6899 7.23759C41.552 7.551 41.2776 7.95471 41.2702 8.29287C41.254 9.04067 41.2822 9.5904 41.3549 9.94206C41.6326 11.2853 41.8523 12.6806 41.831 14.0553C41.8254 14.4434 41.888 14.844 41.8834 15.2477C41.8833 15.2613 41.8797 15.2748 41.873 15.2867C41.8664 15.2986 41.8568 15.3087 41.8452 15.3159C41.8336 15.3232 41.8204 15.3275 41.8068 15.3283C41.7931 15.3292 41.7795 15.3266 41.7671 15.3208C41.4481 15.1704 41.2548 13.3548 41.2508 13.2039C41.231 12.4445 41.209 11.9744 41.1847 11.7935C41.1296 11.3904 40.9292 11.2438 40.5836 11.3535C40.4615 11.3922 40.4243 11.4712 40.472 11.5906C40.6803 12.1095 41.0699 12.9565 40.8683 13.4872C40.8632 13.5002 40.855 13.5117 40.8445 13.5208C40.8339 13.5298 40.8213 13.536 40.8078 13.5389C40.5202 13.597 40.4623 13.3736 40.447 13.1278C40.4294 12.8507 40.3095 12.6251 40.0875 12.4508C40.0755 12.4414 40.061 12.4356 40.0457 12.434C40.0304 12.4325 40.0148 12.4353 40.0009 12.4422C39.7499 12.5659 39.5142 12.6861 39.2206 12.6322C39.0047 12.5916 38.7874 12.5676 38.5688 12.5602C38.5535 12.5596 38.5383 12.5632 38.5251 12.5708C38.5119 12.5783 38.5011 12.5894 38.494 12.6028C38.2709 13.0226 37.9127 13.5441 37.8813 14.0192C37.8483 14.525 37.8143 15.0311 37.7793 15.5377C37.7777 15.5559 37.7825 15.5742 37.7928 15.5895L37.958 15.8298C37.9657 15.8413 37.9704 15.8545 37.9718 15.8682C37.9731 15.882 37.9711 15.8959 37.9658 15.9087C37.7932 16.3101 37.5025 16.1218 37.4234 15.817C37.3523 15.5419 37.3226 15.334 37.3343 15.1933C37.3633 14.8521 37.3856 14.5099 37.4012 14.1669C37.4077 14.0373 37.3694 14.0224 37.2865 14.1222C37.0173 14.4449 36.7701 14.7851 36.5451 15.1426C36.3335 15.4796 36.3372 15.828 36.3948 16.2012C36.3973 16.217 36.3949 16.2333 36.3881 16.248C36.3325 16.3704 36.2415 16.4281 36.115 16.4212C36.1003 16.4205 36.086 16.4157 36.0737 16.4075C36.0614 16.3992 36.0516 16.3878 36.0453 16.3744C35.731 15.6973 35.7631 15.046 36.1415 14.4207C36.2749 14.2008 36.4187 13.9829 36.5729 13.7671C36.6908 13.6017 36.6621 13.5703 36.4868 13.6729L36.443 13.6987C36.4325 13.7046 36.4209 13.7081 36.409 13.7091C36.397 13.7101 36.385 13.7085 36.3737 13.7045C35.2612 13.3015 34.3727 12.7698 33.9423 11.6011C33.3145 9.89574 34.2489 8.47886 35.0657 7.04965C35.3795 6.50057 35.5255 5.66135 35.5684 5.02692C35.6192 4.275 35.6716 3.52343 35.7258 2.77221C35.8346 1.26203 36.9375 2.44684 37.2739 2.8954C37.2795 2.90275 37.2869 2.90851 37.2954 2.91211C37.3039 2.91572 37.3133 2.91704 37.3224 2.91594L37.3492 2.91275ZM40.8409 7.18904C40.6962 7.34202 40.6482 7.26382 40.4988 7.24544C40.1816 7.207 39.8668 7.2212 39.5545 7.28803C39.4118 7.31876 39.4043 7.36927 39.5323 7.43958L39.733 7.54976C39.746 7.55691 39.7607 7.5603 39.7756 7.55954C39.7904 7.55879 39.8048 7.55392 39.8172 7.54548C39.9767 7.43873 40.1107 7.46581 40.2193 7.62672C40.2272 7.63839 40.2318 7.65128 40.2329 7.6654C40.2409 7.75988 40.2632 7.82084 40.3 7.84827C40.7046 8.15544 40.9778 8.54078 41.1197 9.0043C41.1323 9.04558 41.1512 9.06115 41.1763 9.05103C41.1815 9.04893 41.186 9.04532 41.1892 9.04068C41.1923 9.03604 41.1939 9.0306 41.1938 9.02509L41.1649 8.17544C41.3333 7.78683 41.5365 7.3661 41.533 6.93627C41.5317 6.76861 41.5411 6.60571 41.5612 6.44756C41.5815 6.28664 41.5426 6.27071 41.4444 6.39977L40.8409 7.18904ZM39.6977 6.57748C39.6799 6.71781 39.6503 6.8579 39.6088 6.99775C39.6048 7.01103 39.6042 7.02512 39.6071 7.03868C39.6101 7.05224 39.6164 7.06483 39.6255 7.07527C39.6347 7.0857 39.6463 7.09363 39.6594 7.09832C39.6725 7.103 39.6865 7.10428 39.7002 7.10203L39.8495 7.07766C39.8624 7.07553 39.8746 7.07032 39.8851 7.06246C39.8956 7.0546 39.9041 7.04434 39.9098 7.03252C39.9155 7.02071 39.9182 7.0077 39.9178 6.99459C39.9175 6.98149 39.9139 6.96867 39.9075 6.95722C39.8392 6.83538 39.7834 6.71205 39.74 6.58724C39.7185 6.52619 39.7044 6.52294 39.6977 6.57748ZM39.9552 8.80003L39.9282 8.78103C39.9167 8.77289 39.9032 8.76791 39.8891 8.76655C39.875 8.76519 39.8608 8.7675 39.8479 8.77327C39.835 8.77904 39.8238 8.78806 39.8155 8.79945C39.8071 8.81083 39.8018 8.8242 39.8001 8.83825C39.7803 9.00734 39.7895 9.14005 39.8278 9.2364C39.9155 9.45629 40.0833 9.64936 40.3312 9.81561C40.3418 9.82255 40.3538 9.82694 40.3664 9.82843C40.379 9.82993 40.3918 9.82849 40.4038 9.82423C40.7091 9.7171 40.9333 9.52064 41.0764 9.23486C41.0813 9.2252 41.0841 9.21465 41.0848 9.20383C41.0855 9.19301 41.084 9.18214 41.0804 9.17186C40.7914 8.32031 40.2862 7.94698 39.5119 7.56541C39.3213 7.4713 39.2604 7.54191 39.329 7.77723C39.4273 8.11432 39.608 8.3969 39.871 8.62497C39.9223 8.6693 39.9651 8.71109 39.9994 8.75033C40.1251 8.89385 40.1104 8.91041 39.9552 8.80003ZM39.8787 10.0357C39.7915 9.8887 39.6894 9.87865 39.5723 10.0056C39.5623 10.016 39.5496 10.0237 39.5355 10.0281C39.2545 10.1131 38.9698 10.1542 38.6815 10.1512C37.6296 10.14 36.9911 10.5394 36.3231 11.3117C35.9335 11.7617 35.7783 12.2768 35.8573 12.857C36.0465 13.1794 36.317 13.3915 36.6686 13.4933C36.6852 13.498 36.703 13.4973 36.7192 13.4914C36.7355 13.4855 36.7495 13.4746 36.7592 13.4603C36.9933 13.1137 37.1867 12.7375 37.3396 12.3315C37.4883 12.3873 37.5574 12.5233 37.547 12.7395C37.5231 13.2618 37.5062 13.7842 37.4961 14.307C37.4947 14.3919 37.5973 15.1636 37.6663 15.1554C37.6723 15.155 37.678 15.1523 37.6823 15.1478C37.6867 15.1434 37.6893 15.1375 37.6897 15.1312L37.775 13.7621C37.936 13.2978 38.2087 12.9972 38.4105 12.4606C38.4168 12.4438 38.4285 12.4296 38.4437 12.4202C38.459 12.4108 38.4769 12.4067 38.4948 12.4086C38.8043 12.4383 39.1906 12.5453 39.4748 12.4868C39.6001 12.4614 39.7209 12.4188 39.8371 12.3589C39.8478 12.3535 39.8572 12.3459 39.8645 12.3365C39.8719 12.327 39.8771 12.3161 39.8797 12.3044C39.8823 12.2926 39.8823 12.2805 39.8797 12.2687C39.877 12.2569 39.8719 12.2459 39.8645 12.2363C39.7797 12.1274 39.7347 12.0099 39.7295 11.8839C39.7143 11.4979 39.6999 11.2392 39.6864 11.1075C39.6858 11.1024 39.6871 11.0972 39.6901 11.0931C39.6931 11.0889 39.6976 11.086 39.7026 11.085C39.749 11.0737 39.8352 11.4937 39.8553 11.5999C39.7052 12.0595 40.1349 12.3168 40.4123 12.5881C40.4589 12.6336 40.5021 12.7526 40.5421 12.9453C40.5448 12.9588 40.5509 12.9713 40.5598 12.9817C40.5687 12.9921 40.5801 13.0001 40.593 13.0049C40.6059 13.0097 40.6199 13.0111 40.6336 13.0091C40.6472 13.0071 40.6602 13.0016 40.6712 12.9933L40.7708 12.9181C40.7855 12.9069 40.796 12.8912 40.8006 12.8735C40.8052 12.8558 40.8036 12.8371 40.7962 12.8204C40.6732 12.5406 40.2031 11.5296 40.402 11.2723C40.5954 11.156 40.7978 11.1377 41.0091 11.2172C41.6119 11.5954 41.1871 13.4147 41.5363 13.9917C41.5459 14.0076 41.5557 14.0231 41.5658 14.0384C41.6713 14.2019 41.7213 14.186 41.7156 13.9909L41.6978 13.3793C41.6756 12.3784 41.5539 11.3912 41.3326 10.4177C41.303 10.2891 41.2711 10.1136 41.2369 9.89113C41.2159 9.75652 41.1894 9.62175 41.1575 9.48681C41.1303 9.37378 41.0819 9.36391 41.0124 9.4572C40.8909 9.61976 40.7357 9.74437 40.5469 9.83103C40.5305 9.83861 40.517 9.85151 40.5087 9.86769C40.5003 9.88388 40.4976 9.90243 40.5008 9.92044C40.5202 10.0234 40.5712 10.1015 40.6538 10.1548C40.6704 10.1649 40.6826 10.1811 40.688 10.2C40.7876 10.532 40.5401 10.2358 40.4518 10.3376C40.3388 10.4476 40.3631 10.479 40.5247 10.4317C40.4801 10.5769 40.413 10.5827 40.3236 10.4491C40.3152 10.4363 40.3032 10.4262 40.2892 10.42C40.2752 10.4138 40.2597 10.4118 40.2446 10.4141C40.1821 10.4232 40.138 10.401 40.1124 10.3476C40.1059 10.3336 40.1033 10.3181 40.1051 10.3028C40.1069 10.2874 40.113 10.2729 40.1227 10.2608C40.2016 10.1637 40.2513 10.0536 40.2717 9.93047C40.2742 9.91619 40.2729 9.90149 40.2678 9.88792C40.2627 9.87434 40.254 9.86238 40.2427 9.8533C40.0765 9.71954 39.9383 9.56052 39.828 9.37622C39.8259 9.37277 39.8228 9.36996 39.8191 9.36809C39.8154 9.36622 39.8112 9.36534 39.807 9.36556L39.7842 9.36746C39.7808 9.3677 39.7775 9.36877 39.7745 9.37057C39.7716 9.37238 39.7692 9.37487 39.7674 9.37783C39.7657 9.38079 39.7647 9.38413 39.7645 9.38757C39.7643 9.391 39.765 9.39443 39.7664 9.39755C39.8574 9.60389 39.8948 9.81661 39.8787 10.0357ZM40.5075 10.1072L40.4738 10.0388C40.4272 9.94183 40.3785 9.94104 40.3279 10.0365L40.1892 10.3014C40.186 10.3075 40.1843 10.3144 40.1844 10.3213C40.1845 10.3282 40.1862 10.3349 40.1896 10.341C40.1929 10.347 40.1977 10.3522 40.2035 10.3559C40.2093 10.3596 40.2159 10.3619 40.2228 10.3624C40.2499 10.3647 40.2743 10.3505 40.2959 10.32C40.3023 10.3109 40.3106 10.3032 40.3203 10.2974C40.3299 10.2916 40.3407 10.2878 40.3519 10.2862L40.5813 10.2572C40.6294 10.2514 40.6356 10.2323 40.5999 10.1998L40.5261 10.1321C40.5181 10.1254 40.5119 10.1171 40.5075 10.1072ZM37.2486 12.7965L37.1824 12.9039C36.9299 13.3116 36.7392 13.7062 36.4512 14.1271C36.2655 14.3977 36.0402 14.7298 35.9915 15.0597C35.9803 15.1318 35.9721 15.2035 35.9669 15.2748C35.9538 15.4497 35.994 15.4627 36.0876 15.3139L36.2591 15.041C36.4663 14.9757 36.5888 14.9087 36.6267 14.84C36.8188 14.487 37.0685 14.1734 37.3759 13.8993C37.4342 13.4498 37.5095 12.9291 37.4382 12.4819C37.4374 12.4775 37.435 12.4736 37.4315 12.471C37.428 12.4683 37.4236 12.4671 37.4192 12.4677L37.3949 12.4706C37.3887 12.4714 37.383 12.4742 37.3787 12.4786C37.3744 12.483 37.3718 12.4887 37.3714 12.4948C37.3612 12.6073 37.3203 12.7079 37.2486 12.7965Z" fill="#080808"/>
<path d="M36.258 2.16926C35.965 2.89574 35.9809 2.95281 36.3055 2.34047C36.3126 2.32646 36.3213 2.31611 36.3314 2.30941C36.3451 2.3001 36.3579 2.29446 36.3697 2.29251C36.3744 2.29172 36.3792 2.29217 36.3836 2.29381C36.3881 2.29546 36.392 2.29824 36.395 2.30188C36.398 2.30552 36.4 2.3099 36.4008 2.31456C36.4016 2.31922 36.4012 2.32401 36.3995 2.32844C36.2434 2.73972 36.0495 3.13055 35.8178 3.50094C35.8083 3.21853 35.8318 2.90258 35.8883 2.55307C35.9259 2.32099 36.0491 2.19306 36.258 2.16926Z" fill="white"/>
<path d="M36.2579 2.16927C36.4139 2.2313 36.5454 2.32175 36.6522 2.44065L35.7725 4.55027C35.7326 4.18319 35.7477 3.83341 35.8177 3.50094C36.0494 3.13056 36.2434 2.73973 36.3995 2.32845C36.4011 2.32401 36.4015 2.31922 36.4008 2.31456C36.4 2.3099 36.398 2.30553 36.3949 2.30189C36.3919 2.29824 36.388 2.29546 36.3836 2.29382C36.3791 2.29217 36.3743 2.29172 36.3697 2.29251C36.3578 2.29447 36.3451 2.3001 36.3314 2.30941C36.3212 2.31611 36.3126 2.32646 36.3055 2.34047C35.9808 2.95282 35.965 2.89575 36.2579 2.16927Z" fill="#080808"/>
<path d="M36.652 2.44098L36.7541 2.55221C36.4727 3.22357 36.2361 3.83831 36.0443 4.39643C35.905 4.80186 35.9445 4.81992 36.1626 4.45061C36.4757 3.92081 36.7648 3.37878 37.03 2.82453C37.1376 2.91262 37.2201 3.02043 37.2775 3.14795C36.8684 3.98808 36.3222 5.03707 35.6434 5.61647L35.7722 4.5506L36.652 2.44098Z" fill="white"/>
<path d="M38.0015 3.19913C37.7872 3.70619 37.541 4.19703 37.263 4.67164C37.1654 4.83738 37.1963 4.86634 37.3556 4.7585C37.9413 4.36239 38.4447 3.876 38.8657 3.29934L39.082 3.12631C39.1717 3.05475 39.2068 3.07552 39.1873 3.18862L39.1155 3.60768C39.0725 3.60567 39.0409 3.61657 39.0207 3.64037C38.2795 4.49622 37.6743 4.89246 36.6355 5.49421C36.3502 5.65928 35.962 5.97729 35.4708 6.44824L35.5798 5.98279C36.4322 5.37612 37.0571 4.58869 37.4545 3.62052C37.5429 3.40542 37.5827 3.05791 37.5738 2.578C37.5821 2.5282 37.5986 2.48949 37.6233 2.46187C37.6995 2.37875 37.7374 2.39342 37.7371 2.50589C37.7368 2.70116 37.7375 2.88865 37.7391 3.06833C37.7405 3.21789 37.828 3.26149 38.0015 3.19913Z" fill="white"/>
<path d="M36.7544 2.55207C36.8722 2.61536 36.9642 2.70613 37.0304 2.82439C36.7652 3.37864 36.476 3.92067 36.163 4.45047C35.9448 4.81979 35.9054 4.80173 36.0446 4.39629C36.2364 3.83817 36.473 3.22343 36.7544 2.55207Z" fill="#080808"/>
<path d="M37.5733 2.57788C37.5823 3.05779 37.5425 3.4053 37.4541 3.6204C37.0567 4.58857 36.4318 5.376 35.5794 5.98268C35.5757 5.8504 35.5971 5.72829 35.6435 5.61636C36.3223 5.03696 36.8685 3.98797 37.2776 3.14784C37.3767 3.10916 37.4005 3.03091 37.3492 2.91308C37.5176 2.86258 37.3474 2.64923 37.5733 2.57788Z" fill="#080808"/>
<path d="M38.8655 3.29925C38.4445 3.87592 37.9411 4.3623 37.3554 4.75841C37.1961 4.86625 37.1652 4.8373 37.2628 4.67155C37.5408 4.19694 37.787 3.7061 38.0013 3.19904C38.0355 3.08143 38.1047 2.98517 38.2087 2.91025C38.2179 2.90371 38.2284 2.89912 38.2394 2.89677C38.2504 2.89441 38.2618 2.89435 38.2729 2.89658C38.284 2.89881 38.2944 2.90328 38.3037 2.90972C38.313 2.91616 38.3208 2.92444 38.3267 2.93403L38.5236 3.2602C38.5341 3.27793 38.551 3.29094 38.5707 3.29654C38.6586 3.32116 38.7569 3.32207 38.8655 3.29925Z" fill="#080808"/>
<path d="M39.1152 3.60776L39.1248 3.68887C39.0281 3.81611 38.92 3.93238 38.8003 4.03768C38.7199 4.10868 38.6516 4.1936 38.5954 4.29244C38.4485 4.55098 38.0387 4.85319 37.784 5.00776C36.9585 5.50868 36.1671 6.05873 35.4098 6.65791L35.4704 6.44832C35.9616 5.97737 36.3499 5.65936 36.6351 5.49429C37.674 4.89254 38.2791 4.4963 39.0204 3.64044C39.0406 3.61665 39.0722 3.60575 39.1152 3.60776Z" fill="#080808"/>
<path d="M39.125 3.6888C39.1702 4.03386 39.0255 4.04782 38.8121 4.2386C38.803 4.24696 38.7913 4.2518 38.7789 4.25221C38.7666 4.25262 38.7545 4.24859 38.7449 4.24085L38.7213 4.22227C38.6843 4.19267 38.6665 4.20166 38.6678 4.24922C38.6711 4.48464 38.6376 4.70691 38.5671 4.91604C37.2674 5.64842 36.0625 6.2864 35.1258 7.28238L35.41 6.65785C36.1673 6.05866 36.9587 5.50861 37.7841 5.0077C38.0388 4.85312 38.4487 4.55091 38.5956 4.29237C38.6518 4.19353 38.7201 4.10861 38.8005 4.03761C38.9201 3.93232 39.0283 3.81605 39.125 3.6888Z" fill="white"/>
<path d="M38.567 4.91623C38.4996 5.97313 38.0116 6.63428 37.3747 7.52377C36.5919 8.61739 35.7423 10.0069 35.599 11.4208C35.555 11.8522 35.6725 12.3269 35.7443 12.7708C34.4156 12.0036 34.2701 9.87796 34.6528 8.55396C34.7378 8.25974 34.8263 7.96675 34.9182 7.675C34.9518 7.52403 35.0209 7.39321 35.1256 7.28256C36.0624 6.28659 37.2673 5.6486 38.567 4.91623Z" fill="#080808"/>
<path d="M41.1654 8.17582L41.0975 7.63356C41.0947 7.6147 41.0857 7.59725 41.0718 7.58397C40.9548 7.47617 40.878 7.34465 40.8414 7.18942L41.4449 6.40015C41.5431 6.27109 41.582 6.28702 41.5617 6.44793C41.5416 6.60608 41.5322 6.76899 41.5335 6.93665C41.537 7.36647 41.3338 7.78721 41.1654 8.17582Z" fill="white"/>
<path d="M39.698 6.57782C39.7047 6.52328 39.7188 6.52653 39.7403 6.58759C39.7837 6.71239 39.8395 6.83572 39.9078 6.95756C39.9142 6.96901 39.9178 6.98183 39.9181 6.99494C39.9185 7.00804 39.9158 7.02105 39.9101 7.03286C39.9044 7.04468 39.8959 7.05495 39.8854 7.0628C39.8749 7.07066 39.8627 7.07587 39.8498 7.078L39.7005 7.10238C39.6868 7.10462 39.6728 7.10334 39.6597 7.09866C39.6466 7.09397 39.635 7.08604 39.6258 7.07561C39.6167 7.06517 39.6104 7.05258 39.6074 7.03902C39.6045 7.02546 39.6051 7.01138 39.6091 6.9981C39.6506 6.85824 39.6802 6.71815 39.698 6.57782Z" fill="white"/>
<path d="M34.9184 7.67483C34.8265 7.96658 34.738 8.25957 34.653 8.55379C34.2702 9.87779 34.4158 12.0034 35.7445 12.7706C35.8873 13.132 36.1361 13.3787 36.4908 13.5109C36.562 13.538 36.5619 13.5644 36.4903 13.5899C36.4566 13.6016 36.4188 13.5992 36.3768 13.5829C35.9959 13.433 35.6301 13.2517 35.2796 13.039C34.0071 12.2669 33.5605 10.6665 34.0667 9.3155C34.2634 8.78915 34.5473 8.24226 34.9184 7.67483Z" fill="white"/>
<path d="M40.8411 7.18885C40.8777 7.34408 40.9545 7.4756 41.0716 7.5834C41.0854 7.59668 41.0944 7.61413 41.0972 7.633L41.1651 8.17526L41.194 9.0249C41.1941 9.03041 41.1925 9.03585 41.1894 9.04049C41.1863 9.04513 41.1818 9.04874 41.1765 9.05084C41.1514 9.06096 41.1325 9.04539 41.1199 9.00411C40.9781 8.54059 40.7048 8.15525 40.3002 7.84808C40.2635 7.82065 40.2411 7.75969 40.2332 7.66521C40.232 7.65109 40.2275 7.6382 40.2195 7.62653C40.1109 7.46562 39.9769 7.43854 39.8174 7.54529C39.8051 7.55373 39.7907 7.5586 39.7758 7.55935C39.7609 7.56011 39.7462 7.55672 39.7332 7.54957L39.5325 7.43939C39.4046 7.36908 39.412 7.31857 39.5548 7.28784C39.8671 7.22101 40.1818 7.20681 40.499 7.24525C40.6485 7.26363 40.6965 7.34183 40.8411 7.18885Z" fill="#080808"/>
<path d="M39.9998 8.75074C39.9655 8.7115 39.9227 8.66971 39.8713 8.62538C39.6083 8.39731 39.4277 8.11473 39.3294 7.77765C39.2608 7.54232 39.3217 7.47171 39.5123 7.56582C40.2866 7.94739 40.7918 8.32073 41.0808 9.17227C41.0844 9.18255 41.0859 9.19342 41.0852 9.20424C41.0845 9.21506 41.0816 9.22561 41.0768 9.23527C40.9337 9.52106 40.7095 9.71751 40.4042 9.82464C40.3922 9.82891 40.3794 9.83034 40.3668 9.82885C40.3542 9.82735 40.3421 9.82296 40.3316 9.81602C40.0836 9.64978 39.9158 9.45671 39.8282 9.23681C39.7899 9.14047 39.7806 9.00775 39.8005 8.83866C39.8022 8.82462 39.8075 8.81125 39.8158 8.79986C39.8242 8.78847 39.8354 8.77945 39.8483 8.77368C39.8612 8.76792 39.8754 8.7656 39.8895 8.76696C39.9036 8.76832 39.917 8.77331 39.9286 8.78144L39.9555 8.80044C40.1107 8.91083 40.1255 8.89426 39.9998 8.75074Z" fill="white"/>
<path d="M40.5251 10.4318L40.4522 10.3376C40.5404 10.2358 40.788 10.5321 40.6884 10.2001C40.6829 10.1811 40.6707 10.165 40.6542 10.1548C40.5716 10.1016 40.5206 10.0234 40.5012 9.92046C40.4979 9.90245 40.5007 9.8839 40.509 9.86771C40.5174 9.85153 40.5308 9.83863 40.5473 9.83105C40.7361 9.74439 40.8912 9.61978 41.0128 9.45722C41.0823 9.36393 41.1306 9.3738 41.1578 9.48683C41.1898 9.62177 41.2163 9.75654 41.2373 9.89115C41.2714 10.1136 41.3033 10.2891 41.3329 10.4178C41.5542 11.3912 41.676 12.3784 41.6982 13.3794C41.5665 12.9645 41.4942 12.6501 41.4813 12.4361C41.4495 11.9112 41.4015 11.3773 41.3373 10.8343C41.3177 10.6699 41.2671 10.6595 41.1855 10.8031C41.1161 10.9243 41.0574 11.0624 41.0095 11.2173C40.7982 11.1377 40.5958 11.156 40.4023 11.2723C40.3093 11.1907 40.2049 11.1409 40.0892 11.1229C40.0769 11.121 40.0643 11.1219 40.0524 11.1256C40.0405 11.1293 40.0296 11.1356 40.0206 11.1442C40.0115 11.1527 40.0045 11.1632 40.0001 11.1749C39.9957 11.1865 39.9941 11.199 39.9953 11.2114C40.0105 11.3626 39.964 11.4921 39.8556 11.5999C39.8356 11.4937 39.7493 11.0737 39.703 11.085C39.6979 11.086 39.6935 11.0889 39.6904 11.0931C39.6874 11.0973 39.6861 11.1024 39.6867 11.1075C39.7002 11.2392 39.7146 11.498 39.7299 11.8839C39.735 12.01 39.78 12.1275 39.8649 12.2364C39.8722 12.2459 39.8774 12.257 39.88 12.2687C39.8827 12.2805 39.8827 12.2927 39.8801 12.3044C39.8774 12.3161 39.8723 12.3271 39.8649 12.3365C39.8576 12.3459 39.8482 12.3536 39.8375 12.3589C39.7212 12.4188 39.6005 12.4615 39.4752 12.4868C39.1909 12.5454 38.8047 12.4384 38.4951 12.4086C38.4773 12.4067 38.4593 12.4108 38.4441 12.4202C38.4288 12.4296 38.4171 12.4438 38.4108 12.4606C38.209 12.9972 37.9364 13.2979 37.7753 13.7621C37.6905 13.464 37.6972 13.1799 37.7955 12.9099C37.9293 12.541 38.3329 12.3449 38.6851 12.2289C39.3357 12.0139 39.25 11.2599 39.5375 10.8078C39.6886 10.5709 39.8025 10.3136 39.879 10.0357C39.8951 9.81663 39.8577 9.60391 39.7668 9.39757C39.7653 9.39445 39.7647 9.39102 39.7649 9.38759C39.765 9.38415 39.766 9.38081 39.7678 9.37785C39.7695 9.37489 39.772 9.3724 39.7749 9.37059C39.7778 9.36879 39.7812 9.36772 39.7846 9.36748L39.8074 9.36558C39.8116 9.36536 39.8158 9.36624 39.8194 9.36811C39.8231 9.36998 39.8262 9.37279 39.8284 9.37624C39.9387 9.56054 40.0769 9.71956 40.2431 9.85332C40.2544 9.8624 40.2631 9.87436 40.2681 9.88794C40.2732 9.90152 40.2746 9.91621 40.2721 9.93049C40.2516 10.0536 40.2019 10.1637 40.123 10.2609C40.1134 10.2729 40.1073 10.2874 40.1055 10.3028C40.1037 10.3181 40.1062 10.3337 40.1128 10.3476C40.1384 10.4011 40.1824 10.4232 40.245 10.4141C40.2601 10.4118 40.2756 10.4139 40.2896 10.4201C40.3036 10.4263 40.3155 10.4364 40.324 10.4491C40.4134 10.5827 40.4804 10.5769 40.5251 10.4318Z" fill="white"/>
<path d="M39.8792 10.0356C39.8026 10.3135 39.6888 10.5708 39.5376 10.8077C39.2501 11.2598 39.3359 12.0138 38.6853 12.2288C38.333 12.3448 37.9294 12.5409 37.7957 12.9098C37.6973 13.1798 37.6906 13.4639 37.7755 13.762L37.6902 15.1312C37.6898 15.1374 37.6872 15.1433 37.6829 15.1478C37.6786 15.1522 37.6728 15.1549 37.6668 15.1553C37.5978 15.1636 37.4952 14.3918 37.4966 14.3069C37.5067 13.7842 37.5236 13.2617 37.5475 12.7395C37.5579 12.5232 37.4888 12.3872 37.3401 12.3315C37.0242 12.6027 36.7023 12.8169 36.3744 12.9739C36.3568 12.9823 36.3369 12.9844 36.3183 12.9797L35.8578 12.8569C35.7788 12.2768 35.9341 11.7617 36.3236 11.3116C36.9917 10.5393 37.6301 10.1399 38.682 10.1511C38.9703 10.1541 39.255 10.113 39.536 10.028C39.5501 10.0236 39.5628 10.0159 39.5728 10.0055C39.6899 9.87857 39.792 9.88861 39.8792 10.0356Z" fill="#080808"/>
<path d="M40.5262 10.1327L40.6001 10.2004C40.6358 10.2329 40.6296 10.252 40.5814 10.2578L40.3521 10.2868C40.3408 10.2884 40.33 10.2922 40.3204 10.298C40.3108 10.3038 40.3025 10.3115 40.2961 10.3206C40.2745 10.3511 40.2501 10.3653 40.223 10.363C40.2161 10.3625 40.2094 10.3602 40.2036 10.3565C40.1978 10.3528 40.193 10.3476 40.1897 10.3416C40.1864 10.3355 40.1846 10.3288 40.1845 10.3218C40.1845 10.3149 40.1861 10.3081 40.1894 10.302L40.3281 10.0371C40.3787 9.94164 40.4273 9.94242 40.474 10.0394L40.5076 10.1078C40.5121 10.1177 40.5183 10.126 40.5262 10.1327Z" fill="#080808"/>
<path d="M40.4524 10.338L40.5256 10.4325C40.3633 10.48 40.3389 10.4484 40.4524 10.338Z" fill="#080808"/>
<path d="M41.6978 13.3794L41.7156 13.991C41.7213 14.1861 41.6713 14.2019 41.5657 14.0384C41.5557 14.0232 41.5459 14.0076 41.5363 13.9917C41.187 13.4147 41.6119 11.5954 41.0091 11.2173C41.057 11.0624 41.1157 10.9243 41.1851 10.8031C41.2668 10.6595 41.3174 10.6699 41.3369 10.8343C41.4011 11.3773 41.4491 11.9112 41.4809 12.4361C41.4938 12.6501 41.5661 12.9645 41.6978 13.3794Z" fill="#080808"/>
<path d="M40.4022 11.2728C40.2033 11.5301 40.6734 12.5411 40.7964 12.8209C40.8039 12.8376 40.8054 12.8563 40.8008 12.874C40.7962 12.8917 40.7857 12.9074 40.7711 12.9186L40.6714 12.9938C40.6604 13.0021 40.6474 13.0076 40.6338 13.0096C40.6201 13.0116 40.6062 13.0102 40.5932 13.0054C40.5803 13.0006 40.5689 12.9926 40.56 12.9822C40.5511 12.9718 40.545 12.9593 40.5423 12.9458C40.5024 12.7532 40.4591 12.6341 40.4126 12.5886C40.1351 12.3173 39.7054 12.06 39.8555 11.6004C39.9639 11.4926 40.0104 11.3631 39.9951 11.2119C39.9939 11.1995 39.9956 11.187 40 11.1753C40.0044 11.1637 40.0113 11.1532 40.0204 11.1446C40.0295 11.1361 40.0404 11.1297 40.0523 11.1261C40.0642 11.1224 40.0767 11.1215 40.0891 11.1234C40.2047 11.1414 40.3091 11.1912 40.4022 11.2728Z" fill="#080808"/>
<path d="M37.3399 12.3318C37.1871 12.7377 36.9936 13.114 36.7596 13.4605C36.7498 13.4748 36.7358 13.4857 36.7196 13.4917C36.7033 13.4976 36.6856 13.4982 36.6689 13.4935C36.3173 13.3917 36.0469 13.1796 35.8576 12.8572L36.3181 12.98C36.3367 12.9847 36.3566 12.9826 36.3742 12.9742C36.7021 12.8172 37.024 12.6031 37.3399 12.3318Z" fill="white"/>
<path d="M37.376 13.8994C37.1229 13.5018 37.4238 13.2101 37.2486 12.7966C37.3204 12.708 37.3613 12.6074 37.3715 12.4949C37.3719 12.4888 37.3745 12.4831 37.3787 12.4787C37.383 12.4743 37.3887 12.4715 37.3949 12.4707L37.4192 12.4678C37.4236 12.4672 37.428 12.4684 37.4316 12.4711C37.4351 12.4737 37.4375 12.4776 37.4382 12.482C37.5096 12.9292 37.4343 13.4499 37.376 13.8994Z" fill="white"/>
<path d="M37.2487 12.7967C37.4238 13.2102 37.1229 13.5019 37.376 13.8995C37.0686 14.1736 36.8189 14.4872 36.6268 14.8403C36.5889 14.9089 36.4663 14.9759 36.2591 15.0412C36.3217 14.7008 36.446 14.3888 36.6321 14.105C36.7052 13.9935 37.263 12.9447 37.1825 12.9042L37.2487 12.7967Z" fill="#080808"/>
<path d="M37.1829 12.904C37.2634 12.9446 36.7056 13.9933 36.6325 14.1049C36.4464 14.3887 36.3221 14.7007 36.2596 15.0411L36.0881 15.3141C35.9945 15.4629 35.9543 15.4498 35.9674 15.275C35.9726 15.2036 35.9808 15.1319 35.992 15.0598C36.0407 14.7299 36.266 14.3978 36.4517 14.1272C36.7397 13.7063 36.9304 13.3117 37.1829 12.904Z" fill="white"/>
<path d="M40.2709 13.7819C40.4887 13.8152 40.7013 13.7973 40.9086 13.7281C40.9688 13.7084 40.9787 13.7225 40.9384 13.7707C40.7994 13.9369 40.4323 13.9215 40.2483 13.8611C40.2094 13.8482 40.1941 13.8369 40.2022 13.8271C40.2152 13.8128 40.2287 13.8009 40.241 13.7928C40.2532 13.7847 40.2636 13.7809 40.2709 13.7819Z" fill="#080808"/>
<path d="M40.8382 14.2478C40.6927 14.1656 41.4303 14.0596 40.8814 14.2509C40.8744 14.2535 40.867 14.2546 40.8596 14.254C40.8521 14.2535 40.8448 14.2514 40.8382 14.2478Z" fill="#080808"/>
<path d="M40.2865 7.83913C40.1103 7.75104 40.0614 7.72933 39.9341 7.66296C39.8068 7.59659 39.7579 7.57487 39.7579 7.57487C39.8001 7.49404 39.983 7.42036 40.1103 7.48673C40.2376 7.5531 40.368 7.8799 40.2865 7.83913Z" fill="white"/>
</svg>
