<svg width="16" height="16" viewBox="0 0 16 16" fill="none" xmlns="http://www.w3.org/2000/svg">
<mask id="mask0_40_472" style="mask-type:alpha" maskUnits="userSpaceOnUse" x="0" y="0" width="16" height="16">
<rect width="16" height="16" fill="#D9D9D9"/>
</mask>
<g mask="url(#mask0_40_472)">
<path d="M7.99882 10.4872C8.49016 10.4872 8.92816 10.3395 9.31282 10.0442C9.69738 9.74896 9.97771 9.37269 10.1538 8.91535H5.84616C6.02227 9.37269 6.30221 9.74896 6.68599 10.0442C7.06988 10.3395 7.50749 10.4872 7.99882 10.4872ZM6.46299 7.97435C6.70566 7.97435 6.91138 7.88947 7.08016 7.71969C7.24893 7.54991 7.33332 7.34369 7.33332 7.10102C7.33332 6.85846 7.24843 6.6528 7.07866 6.48402C6.90877 6.31524 6.70255 6.23085 6.45999 6.23085C6.21743 6.23085 6.01177 6.31574 5.84299 6.48552C5.67421 6.6553 5.58982 6.86147 5.58982 7.10402C5.58982 7.34669 5.67471 7.55241 5.84449 7.72119C6.01427 7.88996 6.22043 7.97435 6.46299 7.97435ZM9.53999 7.97435C9.78255 7.97435 9.98821 7.88947 10.157 7.71969C10.3258 7.54991 10.4102 7.34369 10.4102 7.10102C10.4102 6.85846 10.3253 6.6528 10.1555 6.48402C9.98571 6.31524 9.77955 6.23085 9.53699 6.23085C9.29432 6.23085 9.0886 6.31574 8.91982 6.48552C8.75105 6.6553 8.66666 6.86147 8.66666 7.10402C8.66666 7.34669 8.75155 7.55241 8.92132 7.72119C9.09121 7.88996 9.29743 7.97435 9.53999 7.97435ZM5.24999 4.49752L7.05249 2.13202C7.17216 1.97191 7.31427 1.85435 7.47882 1.77935C7.64338 1.70424 7.8171 1.66669 7.99999 1.66669C8.18288 1.66669 8.3566 1.70424 8.52116 1.77935C8.68571 1.85435 8.82782 1.97191 8.94749 2.13202L10.75 4.49752L13.5063 5.42819C13.7697 5.51285 13.975 5.66213 14.1223 5.87602C14.2698 6.09002 14.3435 6.32635 14.3435 6.58502C14.3435 6.70446 14.326 6.82352 14.2912 6.94219C14.2563 7.06085 14.1989 7.17458 14.1192 7.28335L12.3243 9.77435L12.391 12.418C12.4021 12.769 12.2864 13.0649 12.0438 13.3055C11.8014 13.5463 11.5188 13.6667 11.1962 13.6667C11.1867 13.6667 11.0752 13.6521 10.8615 13.623L7.99999 12.8025L5.13849 13.623C5.08293 13.6452 5.0256 13.6581 4.96649 13.6615C4.90738 13.665 4.85316 13.6667 4.80382 13.6667C4.47816 13.6667 4.19482 13.5463 3.95382 13.3055C3.71282 13.0649 3.59788 12.769 3.60899 12.418L3.67566 9.75769L1.89099 7.28335C1.81121 7.17413 1.75388 7.05997 1.71899 6.94085C1.6841 6.82163 1.66666 6.70246 1.66666 6.58335C1.66666 6.33191 1.73988 6.09808 1.88632 5.88185C2.03277 5.66563 2.23732 5.5123 2.49999 5.42185L5.24999 4.49752ZM5.86799 5.35902L2.82049 6.37435C2.75638 6.39569 2.7126 6.43952 2.68916 6.50585C2.6656 6.57208 2.67521 6.63297 2.71799 6.68852L4.68199 9.46035L4.60899 12.4385C4.60466 12.5112 4.63027 12.5689 4.68582 12.6115C4.74138 12.6543 4.80338 12.665 4.87182 12.6437L7.99999 11.7654L11.1282 12.6604C11.1966 12.6817 11.2586 12.671 11.3142 12.6282C11.3697 12.5855 11.3953 12.5279 11.391 12.4552L11.318 9.46035L13.282 6.72185C13.3248 6.6663 13.3344 6.60541 13.3108 6.53919C13.2874 6.47285 13.2436 6.42902 13.1795 6.40769L10.132 5.35902L8.16032 2.75652C8.12177 2.70085 8.06832 2.67302 7.99999 2.67302C7.93166 2.67302 7.87821 2.70085 7.83966 2.75652L5.86799 5.35902Z" fill="#D5D1DF"/>
</g>
</svg>
