<svg width="16" height="16" viewBox="0 0 16 16" fill="none" xmlns="http://www.w3.org/2000/svg">
<mask id="mask0_40_454" style="mask-type:alpha" maskUnits="userSpaceOnUse" x="0" y="0" width="16" height="16">
<rect width="16" height="16" fill="#D9D9D9"/>
</mask>
<g mask="url(#mask0_40_454)">
<path d="M8.00001 6.07048C8.20601 6.07048 8.38035 5.99909 8.52301 5.85631C8.66579 5.71364 8.73718 5.53931 8.73718 5.33331C8.73718 5.12731 8.66579 4.95298 8.52301 4.81031C8.38035 4.66753 8.20601 4.59614 8.00001 4.59614C7.79401 4.59614 7.61968 4.66753 7.47701 4.81031C7.33424 4.95298 7.26285 5.12731 7.26285 5.33331C7.26285 5.53931 7.33424 5.71364 7.47701 5.85631C7.61968 5.99909 7.79401 6.07048 8.00001 6.07048ZM8.00152 9.53198C7.61196 9.53198 7.25985 9.42109 6.94518 9.19931C6.63051 8.97753 6.40818 8.68075 6.27818 8.30898C6.22263 8.32175 6.16729 8.33092 6.11218 8.33648C6.05707 8.34203 5.99963 8.34481 5.93985 8.34481C5.43607 8.34481 5.00501 8.16703 4.64668 7.81148C4.28824 7.45592 4.10901 7.02559 4.10901 6.52048C4.10901 6.30514 4.14896 6.09748 4.22885 5.89748C4.30885 5.69748 4.42018 5.50942 4.56285 5.33331C4.42696 5.1572 4.32013 4.96914 4.24235 4.76914C4.16457 4.56914 4.12568 4.36148 4.12568 4.14614C4.12568 3.64103 4.30224 3.2107 4.65535 2.85514C5.00857 2.49959 5.43674 2.32181 5.93985 2.32181C5.99963 2.32181 6.05707 2.32459 6.11218 2.33014C6.16729 2.3357 6.22479 2.34275 6.28468 2.35131C6.41457 1.98375 6.63529 1.68909 6.94685 1.46731C7.2584 1.24553 7.60946 1.13464 8.00001 1.13464C8.39057 1.13464 8.74163 1.24553 9.05318 1.46731C9.36474 1.68909 9.58546 1.98375 9.71535 2.35131C9.77524 2.34275 9.83274 2.3357 9.88785 2.33014C9.94296 2.32459 10.0004 2.32181 10.0602 2.32181C10.5633 2.32181 10.9915 2.49959 11.3447 2.85514C11.6978 3.2107 11.8743 3.64103 11.8743 4.14614C11.8743 4.36303 11.8372 4.57214 11.7628 4.77348C11.6884 4.97492 11.5798 5.16153 11.4372 5.33331C11.5731 5.50942 11.6799 5.69748 11.7577 5.89748C11.8355 6.09748 11.8743 6.30514 11.8743 6.52048C11.8743 7.02559 11.6978 7.45592 11.3447 7.81148C10.9915 8.16703 10.5633 8.34481 10.0602 8.34481C10.0004 8.34481 9.94296 8.34203 9.88785 8.33648C9.83274 8.33092 9.77313 8.32175 9.70901 8.30898C9.58335 8.68075 9.36474 8.97753 9.05318 9.19931C8.74163 9.42109 8.39107 9.53198 8.00152 9.53198ZM8.00001 14.282C8.00001 13.5581 8.14979 12.8654 8.44935 12.2038C8.7489 11.5423 9.15168 10.9585 9.65768 10.4525C10.1637 9.94659 10.7475 9.54381 11.409 9.24414C12.0706 8.94459 12.7633 8.79481 13.4872 8.79481C13.4872 9.51881 13.3374 10.2115 13.0378 10.873C12.7383 11.5345 12.3355 12.1183 11.8295 12.6243C11.3235 13.1303 10.7397 13.5331 10.0782 13.8326C9.41663 14.1322 8.7239 14.282 8.00001 14.282ZM9.19735 13.0846C9.95035 12.8513 10.5957 12.4658 11.1333 11.9281C11.6709 11.3906 12.0563 10.7453 12.2897 9.99231C11.5367 10.2256 10.8914 10.6111 10.3538 11.1486C9.81618 11.6863 9.43068 12.3316 9.19735 13.0846ZM8.00001 14.282C8.00001 13.5581 7.85024 12.8654 7.55068 12.2038C7.25113 11.5423 6.84835 10.9585 6.34235 10.4525C5.83635 9.94659 5.25257 9.54381 4.59101 9.24414C3.92946 8.94459 3.23674 8.79481 2.51285 8.79481C2.51285 9.51881 2.66263 10.2115 2.96218 10.873C3.26174 11.5345 3.66451 12.1183 4.17051 12.6243C4.67651 13.1303 5.26029 13.5331 5.92185 13.8326C6.5834 14.1322 7.27613 14.282 8.00001 14.282ZM6.80268 13.0846C6.04968 12.8513 5.40435 12.4658 4.86668 11.9281C4.32913 11.3906 3.94368 10.7453 3.71035 9.99231C4.46335 10.2256 5.10863 10.6111 5.64618 11.1486C6.18385 11.6863 6.56935 12.3316 6.80268 13.0846ZM10.0602 7.34481C10.2872 7.34481 10.4813 7.26403 10.6427 7.10248C10.804 6.94103 10.8847 6.74659 10.8847 6.51914C10.8847 6.3517 10.8376 6.20109 10.7435 6.06731C10.6495 5.93353 10.5252 5.84187 10.3705 5.79231L9.71668 5.57298C9.6979 5.68498 9.66968 5.79442 9.63201 5.90131C9.59446 6.00809 9.5479 6.10937 9.49235 6.20514C9.43679 6.30081 9.3744 6.38881 9.30518 6.46914C9.23596 6.54948 9.1569 6.62425 9.06802 6.69348L9.56918 7.14748C9.63329 7.20892 9.70613 7.2572 9.78768 7.29231C9.86913 7.32731 9.95996 7.34481 10.0602 7.34481ZM9.71668 5.09364L10.3705 4.87431C10.5252 4.82475 10.6478 4.73148 10.7385 4.59448C10.8291 4.45748 10.8743 4.30803 10.8743 4.14614C10.8743 3.91914 10.796 3.72498 10.6392 3.56364C10.4824 3.40242 10.2894 3.32181 10.0602 3.32181C9.95763 3.32181 9.8679 3.33931 9.79102 3.37431C9.71413 3.40942 9.64018 3.4577 9.56918 3.51914L9.05768 3.97314C9.14657 4.04237 9.22735 4.11714 9.30002 4.19748C9.37268 4.27781 9.43679 4.36581 9.49235 4.46148C9.5479 4.55725 9.59446 4.65853 9.63201 4.76531C9.66968 4.8722 9.6979 4.98164 9.71668 5.09364ZM7.36151 3.72314C7.46551 3.68292 7.56952 3.6517 7.67352 3.62948C7.77752 3.60725 7.88668 3.59614 8.00101 3.59614C8.11546 3.59614 8.22468 3.60725 8.32868 3.62948C8.43268 3.6517 8.53596 3.68292 8.63852 3.72314L8.81801 2.93964C8.8659 2.72598 8.80285 2.53842 8.62885 2.37698C8.45496 2.21542 8.24535 2.13464 8.00001 2.13464C7.75468 2.13464 7.54507 2.21542 7.37118 2.37698C7.19718 2.53842 7.13413 2.72598 7.18202 2.93964L7.36151 3.72314ZM8.00001 8.53198C8.24535 8.53198 8.45496 8.4512 8.62885 8.28964C8.80285 8.1282 8.8659 7.94064 8.81801 7.72698L8.63852 6.94348C8.53596 6.98792 8.43268 7.0202 8.32868 7.04031C8.22468 7.06042 8.11546 7.07048 8.00101 7.07048C7.88668 7.07048 7.77718 7.06042 7.67252 7.04031C7.56774 7.0202 7.46407 6.98792 7.36151 6.94348L7.18202 7.72698C7.13413 7.94064 7.19718 8.1282 7.37118 8.28964C7.54507 8.4512 7.75468 8.53198 8.00001 8.53198ZM6.28335 5.09364C6.30213 4.98164 6.33035 4.8722 6.36801 4.76531C6.40557 4.65853 6.45213 4.55725 6.50768 4.46148C6.56324 4.36581 6.62563 4.27781 6.69485 4.19748C6.76407 4.11714 6.84313 4.04237 6.93202 3.97314L6.43085 3.51914C6.36674 3.4577 6.2939 3.40942 6.21235 3.37431C6.1309 3.33931 6.04007 3.32181 5.93985 3.32181C5.71285 3.32181 5.51868 3.40242 5.35735 3.56364C5.19601 3.72498 5.11535 3.91914 5.11535 4.14614C5.11535 4.30803 5.1624 4.45748 5.25651 4.59448C5.35051 4.73148 5.47485 4.82475 5.62951 4.87431L6.28335 5.09364ZM5.93985 7.33464C6.04152 7.33464 6.13207 7.31881 6.21151 7.28714C6.29107 7.25548 6.36418 7.20548 6.43085 7.13714L6.94235 6.69348C6.85346 6.62425 6.77268 6.54948 6.70001 6.46914C6.62735 6.38881 6.56324 6.30081 6.50768 6.20514C6.45213 6.10937 6.40557 6.00809 6.36801 5.90131C6.33035 5.79442 6.30213 5.68498 6.28335 5.57298L5.62951 5.79231C5.47485 5.84187 5.35113 5.93514 5.25835 6.07214C5.16557 6.20914 5.11918 6.35859 5.11918 6.52048C5.12607 6.7487 5.20751 6.94142 5.36351 7.09864C5.51951 7.25598 5.71163 7.33464 5.93985 7.33464Z" fill="#D7D7D7"/>
</g>
</svg>
