<svg width="17" height="17" viewBox="0 0 17 17" fill="none" xmlns="http://www.w3.org/2000/svg">
<g clip-path="url(#clip0_38_435)">
<path d="M15.9705 9.7047L8.87046 14.8647L1.77046 9.7047C1.67527 9.6347 1.60467 9.53638 1.56875 9.42382C1.53282 9.31126 1.53342 9.19023 1.57046 9.07803L2.38379 6.55803L4.01046 1.55136C4.02624 1.51057 4.05135 1.47404 4.08379 1.4447C4.13662 1.39644 4.20558 1.36969 4.27712 1.36969C4.34867 1.36969 4.41763 1.39644 4.47046 1.4447C4.50471 1.47781 4.52995 1.51911 4.54379 1.5647L6.17046 6.55803H11.5705L13.1971 1.55136C13.2129 1.51057 13.238 1.47404 13.2705 1.4447C13.3233 1.39644 13.3922 1.36969 13.4638 1.36969C13.5353 1.36969 13.6043 1.39644 13.6571 1.4447C13.6914 1.47781 13.7166 1.51911 13.7305 1.5647L15.3571 6.57136L16.2038 9.07803C16.2375 9.19369 16.233 9.31712 16.1909 9.43001C16.1489 9.5429 16.0716 9.63923 15.9705 9.7047Z" stroke="black" stroke-width="1.33333" stroke-linecap="round" stroke-linejoin="round"/>
</g>
<defs>
<clipPath id="clip0_38_435">
<rect width="16" height="16" fill="white" transform="translate(0.870453 0.111359)"/>
</clipPath>
</defs>
</svg>
