<svg width="16" height="16" viewBox="0 0 16 16" fill="none" xmlns="http://www.w3.org/2000/svg">
<mask id="mask0_40_460" style="mask-type:alpha" maskUnits="userSpaceOnUse" x="0" y="0" width="16" height="16">
<rect width="16" height="16" fill="#D9D9D9"/>
</mask>
<g mask="url(#mask0_40_460)">
<path d="M5.52816 14.3334L4.60266 13.9552L5.57566 11.6052C4.42355 11.3453 3.48399 10.7579 2.75699 9.84302C2.0301 8.92802 1.66666 7.88141 1.66666 6.70319V4.10902C1.66666 3.43735 1.90582 2.86241 2.38416 2.38419C2.86238 1.90585 3.43732 1.66669 4.10899 1.66669C4.31699 1.66669 4.5156 1.69769 4.70482 1.75969C4.89393 1.82169 5.08249 1.89069 5.27049 1.96669L8.88449 3.45519L6.55132 4.33969V5.48719L13.8142 10.2372L14.3397 13H13.2563L12.673 11.7435H9.13466V14.3334H8.13466V11.7435H6.60249L5.52816 14.3334ZM6.69866 10.7437H12.7487L11.3077 9.79485H6.63466C5.93299 9.79485 5.33238 9.54508 4.83282 9.04552C4.33316 8.54585 4.08332 7.94519 4.08332 7.24352H5.08332C5.08332 7.6743 5.23416 8.04058 5.53582 8.34235C5.8376 8.64402 6.20388 8.79485 6.63466 8.79485H9.76282L5.55132 6.04102V4.10902C5.55132 3.70813 5.41116 3.36752 5.13082 3.08719C4.85049 2.80685 4.50988 2.66669 4.10899 2.66669C3.7081 2.66669 3.36749 2.80685 3.08716 3.08719C2.80682 3.36752 2.66666 3.70813 2.66666 4.10902V6.70519C2.66666 7.82697 3.05866 8.78047 3.84266 9.56569C4.62666 10.351 5.57866 10.7437 6.69866 10.7437ZM4.10916 4.68585C3.94582 4.68585 3.80882 4.63063 3.69816 4.52019C3.58738 4.40963 3.53199 4.27263 3.53199 4.10919C3.53199 3.94585 3.58727 3.80885 3.69782 3.69819C3.80838 3.58741 3.94538 3.53202 4.10882 3.53202C4.27216 3.53202 4.40916 3.5873 4.51982 3.69785C4.63049 3.80841 4.68582 3.94541 4.68582 4.10885C4.68582 4.27219 4.6306 4.40919 4.52016 4.51985C4.4096 4.63052 4.2726 4.68585 4.10916 4.68585Z" fill="#8A8890"/>
</g>
</svg>
