<svg width="16" height="16" viewBox="0 0 16 16" fill="none" xmlns="http://www.w3.org/2000/svg">
<mask id="mask0_40_466" style="mask-type:alpha" maskUnits="userSpaceOnUse" x="0" y="0" width="16" height="16">
<rect width="16" height="16" fill="#D9D9D9"/>
</mask>
<g mask="url(#mask0_40_466)">
<path d="M7.5 13.8334V8.54236C6.83167 8.54236 6.19106 8.41586 5.57817 8.16286C4.96539 7.90986 4.42394 7.54831 3.95383 7.0782C3.48383 6.60808 3.12511 6.06536 2.87767 5.45003C2.63022 4.8347 2.5065 4.19325 2.5065 3.5257V2.5257H3.5065C4.16239 2.5257 4.79745 2.65347 5.41167 2.90903C6.026 3.16447 6.56739 3.52686 7.03583 3.9962C7.38461 4.34497 7.67072 4.73453 7.89417 5.16486C8.11772 5.5952 8.27778 6.05225 8.37433 6.53603C8.45122 6.4027 8.53689 6.27636 8.63133 6.15703C8.72578 6.03781 8.83117 5.92008 8.9475 5.80386C9.41694 5.33453 9.95944 4.97214 10.575 4.7167C11.1906 4.46114 11.8322 4.33336 12.5 4.33336H13.5V5.33336C13.5 6.00125 13.3722 6.64303 13.1165 7.2587C12.8608 7.87436 12.4982 8.41703 12.0287 8.8867C11.5591 9.35625 11.0207 9.71475 10.4135 9.9622C9.80617 10.2096 9.16833 10.3334 8.5 10.3334V13.8334H7.5ZM7.5065 7.5257C7.5065 6.99236 7.40372 6.48403 7.19817 6.0007C6.99261 5.51736 6.70095 5.08681 6.32317 4.70903C5.94539 4.33125 5.51483 4.03958 5.0315 3.83403C4.54817 3.62847 4.03983 3.5257 3.5065 3.5257C3.5065 4.05903 3.6065 4.57014 3.8065 5.05903C4.0065 5.54792 4.29539 5.98125 4.67317 6.35903C5.05095 6.73681 5.48428 7.0257 5.97317 7.2257C6.46206 7.4257 6.97317 7.5257 7.5065 7.5257ZM8.5 9.33336C9.03333 9.33336 9.54167 9.23336 10.025 9.03336C10.5083 8.83336 10.9389 8.54447 11.3167 8.1667C11.6944 7.78892 11.9861 7.35559 12.1917 6.8667C12.3972 6.37781 12.5 5.8667 12.5 5.33336C11.9667 5.33336 11.4556 5.43614 10.9667 5.6417C10.4778 5.84725 10.0444 6.13892 9.66667 6.5167C9.28889 6.89447 9 7.32503 8.8 7.80836C8.6 8.2917 8.5 8.80003 8.5 9.33336Z" fill="#B9B9B9"/>
</g>
</svg>
